<?xml version="1.0" encoding="UTF-8" standalone="no"?>
<svg width="40" height="40" viewBox="0 0 40 40" fill="none" xmlns="http://www.w3.org/2000/svg">
  <rect width="40" height="40" rx="8" fill="#4F46E5" />
  <path d="M12 14C12 11.7909 13.7909 10 16 10H24C26.2091 10 28 11.7909 28 14V22C28 24.2091 26.2091 26 24 26H16C13.7909 26 12 24.2091 12 22V14Z" fill="white" />
  <path d="M18 26L12 30V26H18Z" fill="white" />
  <path d="M20 14H16C15.4477 14 15 14.4477 15 15V21C15 21.5523 15.4477 22 16 22H24C24.5523 22 25 21.5523 25 21V15C25 14.4477 24.5523 14 24 14H20Z" fill="#4F46E5" />
  <circle cx="28" cy="14" r="4" fill="#10B981" />
  <circle cx="28" cy="26" r="4" fill="#F59E0B" />
  <circle cx="12" cy="20" r="4" fill="#EF4444" />
</svg>